
<svg width="40" height="40" viewBox="0 0 40 40" fill="none" xmlns="http://www.w3.org/2000/svg">
  <rect width="40" height="40" rx="8" fill="#4CAF50" fill-opacity="0.2"/>
  <path d="M20 8C13.373 8 8 13.373 8 20C8 26.627 13.373 32 20 32C26.627 32 32 26.627 32 20C32 13.373 26.627 8 20 8ZM12 20C12 16.686 14.686 14 18 14C21.314 14 24 16.686 24 20H12ZM28 20C28 23.314 25.314 26 22 26C18.686 26 16 23.314 16 20H28Z" fill="#4CAF50"/>
  <path d="M18 16C16.895 16 16 16.895 16 18C16 19.105 16.895 20 18 20C19.105 20 20 19.105 20 18C20 16.895 19.105 16 18 16Z" fill="#795548"/>
  <path d="M22 20C20.895 20 20 20.895 20 22C20 23.105 20.895 24 22 24C23.105 24 24 23.105 24 22C24 20.895 23.105 20 22 20Z" fill="#795548"/>
</svg>
